<svg xmlns="http://www.w3.org/2000/svg" width="1440" height="219.866" viewBox="0 0 1440 219.866">
  <path id="Subtraction_4" data-name="Subtraction 4" d="M1552,219.866H112V30.758l.041-.01c1.44-.342,9.274-2.18,22.052-4.8,12.853-2.631,33.452-6.6,58.592-10.573,28.255-4.465,56.37-8.022,83.564-10.573C310.239,1.617,342.877,0,373.256,0c77.333,0,140.676,10.349,188.27,30.759,36.843,15.8,70.126,31.49,102.314,46.664l.018.009c27.188,12.817,52.868,24.923,78.676,36.143,29.007,12.61,53.888,22.234,78.3,30.286A636.961,636.961,0,0,0,905.1,165.59c15.133,2.8,30.725,5.1,46.344,6.815,16.254,1.788,33.148,3.022,50.211,3.667,7.068.267,14.62.4,22.445.4,22.346,0,48.082-1.1,76.493-3.276,25.826-1.976,54.444-4.882,85.059-8.638,51.558-6.325,109.656-15.143,172.682-26.211,30.949-5.435,79.933-14.394,137.541-26.211,34.64-7.106,55.918-11.867,56.129-11.914Z" transform="translate(-112)" fill="#4b84fc" opacity="0.1"/>
</svg>
